<?xml version="1.0" encoding="UTF-8" standalone="no"?>
<!-- Created with Inkscape (http://www.inkscape.org/) -->

<svg
   xmlns:dc="http://purl.org/dc/elements/1.1/"
   xmlns:cc="http://creativecommons.org/ns#"
   xmlns:rdf="http://www.w3.org/1999/02/22-rdf-syntax-ns#"
   xmlns:svg="http://www.w3.org/2000/svg"
   xmlns="http://www.w3.org/2000/svg"
   xmlns:sodipodi="http://sodipodi.sourceforge.net/DTD/sodipodi-0.dtd"
   xmlns:inkscape="http://www.inkscape.org/namespaces/inkscape"
   width="128"
   height="128"
   id="svg3560"
   version="1.1"
   inkscape:version="0.48.3.1 r9886"
   sodipodi:docname="icon_config.svg"
   inkscape:export-filename="/home/fer/escritorio/tesis/icons/icon_config.png"
   inkscape:export-xdpi="225"
   inkscape:export-ydpi="225">
  <defs
     id="defs3562">
    <inkscape:perspective
       sodipodi:type="inkscape:persp3d"
       inkscape:vp_x="0 : 32 : 1"
       inkscape:vp_y="0 : 1000 : 0"
       inkscape:vp_z="64 : 32 : 1"
       inkscape:persp3d-origin="32 : 21.333333 : 1"
       id="perspective3907" />
    <filter
       color-interpolation-filters="sRGB"
       id="filter3266"
       inkscape:label="Drop Shadow">
      <feFlood
         id="feFlood3268"
         flood-opacity="0.815"
         flood-color="rgb(0,0,0)"
         result="flood" />
      <feComposite
         id="feComposite3270"
         in2="SourceGraphic"
         in="flood"
         operator="in"
         result="composite1" />
      <feGaussianBlur
         id="feGaussianBlur3272"
         stdDeviation="3.8"
         result="blur" />
      <feOffset
         id="feOffset3274"
         dx="1.8"
         dy="5.9"
         result="offset" />
      <feComposite
         id="feComposite3276"
         in2="offset"
         in="SourceGraphic"
         operator="over"
         result="composite2" />
    </filter>
    <filter
       color-interpolation-filters="sRGB"
       id="filter3278"
       inkscape:label="Drop Shadow">
      <feFlood
         id="feFlood3280"
         flood-opacity="0.815"
         flood-color="rgb(0,0,0)"
         result="flood" />
      <feComposite
         id="feComposite3282"
         in2="SourceGraphic"
         in="flood"
         operator="in"
         result="composite1" />
      <feGaussianBlur
         id="feGaussianBlur3284"
         stdDeviation="3.8"
         result="blur" />
      <feOffset
         id="feOffset3286"
         dx="1.8"
         dy="5.9"
         result="offset" />
      <feComposite
         id="feComposite3288"
         in2="offset"
         in="SourceGraphic"
         operator="over"
         result="composite2" />
    </filter>
    <filter
       id="filter3931"
       inkscape:label="Drop Shadow"
       color-interpolation-filters="sRGB">
      <feFlood
         id="feFlood3933"
         flood-opacity="0.815"
         flood-color="rgb(0,0,0)"
         result="flood" />
      <feComposite
         id="feComposite3935"
         in2="SourceGraphic"
         in="flood"
         operator="in"
         result="composite1" />
      <feGaussianBlur
         id="feGaussianBlur3937"
         stdDeviation="3.8"
         result="blur" />
      <feOffset
         id="feOffset3939"
         dx="1.8"
         dy="5.9"
         result="offset" />
      <feComposite
         id="feComposite3941"
         in2="offset"
         in="SourceGraphic"
         operator="over"
         result="fbSourceGraphic" />
      <feColorMatrix
         result="fbSourceGraphicAlpha"
         in="fbSourceGraphic"
         values="0 0 0 -1 0 0 0 0 -1 0 0 0 0 -1 0 0 0 0 1 0"
         id="feColorMatrix3943" />
      <feFlood
         id="feFlood3945"
         flood-opacity="0.865"
         flood-color="rgb(0,0,0)"
         result="flood"
         in="fbSourceGraphic" />
      <feComposite
         id="feComposite3947"
         in2="fbSourceGraphic"
         in="flood"
         operator="in"
         result="composite1" />
      <feGaussianBlur
         id="feGaussianBlur3949"
         stdDeviation="3.8"
         result="blur" />
      <feOffset
         id="feOffset3951"
         dx="1.8"
         dy="5.9"
         result="offset" />
      <feComposite
         id="feComposite3953"
         in2="offset"
         in="fbSourceGraphic"
         operator="over"
         result="composite2" />
    </filter>
    <filter
       color-interpolation-filters="sRGB"
       id="filter4837"
       inkscape:label="Drop Shadow">
      <feFlood
         id="feFlood4839"
         flood-opacity="0.674"
         flood-color="rgb(0,0,0)"
         result="flood" />
      <feComposite
         id="feComposite4841"
         in2="SourceGraphic"
         in="flood"
         operator="in"
         result="composite1" />
      <feGaussianBlur
         id="feGaussianBlur4843"
         stdDeviation="3.5"
         result="blur" />
      <feOffset
         id="feOffset4845"
         dx="6.1"
         dy="6.3"
         result="offset" />
      <feComposite
         id="feComposite4847"
         in2="offset"
         in="SourceGraphic"
         operator="over"
         result="composite2" />
    </filter>
    <filter
       color-interpolation-filters="sRGB"
       id="filter4765"
       inkscape:label="Drop Shadow">
      <feFlood
         id="feFlood4767"
         flood-opacity="0.694"
         flood-color="rgb(0,0,0)"
         result="flood" />
      <feComposite
         id="feComposite4769"
         in2="SourceGraphic"
         in="flood"
         operator="in"
         result="composite1" />
      <feGaussianBlur
         id="feGaussianBlur4771"
         stdDeviation="3.5"
         result="blur" />
      <feOffset
         id="feOffset4773"
         dx="7"
         dy="6.9"
         result="offset" />
      <feComposite
         id="feComposite4775"
         in2="offset"
         in="SourceGraphic"
         operator="over"
         result="composite2" />
    </filter>
  </defs>
  <sodipodi:namedview
     id="base"
     pagecolor="#ffffff"
     bordercolor="#666666"
     borderopacity="1.0"
     inkscape:pageopacity="0.0"
     inkscape:pageshadow="2"
     inkscape:zoom="3.8925483"
     inkscape:cx="37.920305"
     inkscape:cy="83.013047"
     inkscape:current-layer="layer1"
     showgrid="true"
     inkscape:document-units="px"
     inkscape:grid-bbox="true"
     inkscape:window-width="1366"
     inkscape:window-height="711"
     inkscape:window-x="0"
     inkscape:window-y="27"
     inkscape:window-maximized="1" />
  <metadata
     id="metadata3565">
    <rdf:RDF>
      <cc:Work
         rdf:about="">
        <dc:format>image/svg+xml</dc:format>
        <dc:type
           rdf:resource="http://purl.org/dc/dcmitype/StillImage" />
        <dc:title></dc:title>
      </cc:Work>
    </rdf:RDF>
  </metadata>
  <g
     id="layer1"
     inkscape:label="Layer 1"
     inkscape:groupmode="layer"
     transform="translate(0,64)">
    <g
       id="g4375"
       transform="translate(-1.9318855,1.1611364)"
       style="filter:url(#filter4837)">
      <path
         transform="matrix(1.9422603,0,0,1.939597,1.1836891,-62.999265)"
         sodipodi:nodetypes="ccssccssssscccsscscccccccccccsssscsc"
         inkscape:export-ydpi="360"
         inkscape:export-xdpi="360"
         inkscape:export-filename="/home/fer/escritorio/icons/path5569.png"
         inkscape:connector-curvature="0"
         id="path5567"
         d="m 22.008895,61.624201 c -3.002311,-1.47801 -3.373568,-1.996818 -1.783639,-2.492883 1.757341,-0.548269 5.909052,-4.72156 5.909052,-5.939768 0,-1.676076 -1.70188,-1.442702 -3.107576,0.426167 -0.648196,0.861793 -2.410458,2.258498 -3.91613,3.103757 l -2.737641,1.536931 -2.17238,-1.492307 C 10.712786,54.370189 8.5784573,52.202815 7.7214938,50.186716 6.5311766,47.386375 7.8280081,45.52415 12.682641,43.062459 c 5.022998,-2.547038 8.284176,-3.053283 9.922587,-1.540252 1.072711,0.990611 3.52908,1.563215 3.52908,0.822657 0,-0.158134 -0.360753,-0.97321 -0.801576,-1.811246 -1.20354,-2.287743 -4.103008,-2.986565 -8.080549,-1.947431 -1.702102,0.444653 -3.879329,1.119935 -4.838326,1.500611 -2.069759,0.821719 -3.004968,0.399027 -4.7772078,-2.15914 -1.184144,-1.709271 -1.4812041,-4.353904 -0.94857,-7.557754 0.5014446,-3.016241 1.7382595,-6.528125 3.6625578,-10.221789 1.6556,-3.178058 1.953988,-3.45844 4.855808,-4.563283 5.015138,-1.90952 6.586483,-4.214376 3.74174,-5.488473 -1.992039,-0.8921207 -1.863047,-3.9815802 0.265698,-6.364853 2.19236,-2.4543969 7.588454,-3.67939296 11.578115,-2.6284164 l 1.197663,0.3154735 0,29.3426469 0,29.342595 -1.430378,1.467541 c -1.872303,1.921002 -4.71969,1.93862 -8.550388,0.05271 l 0,0 z M 21.736952,25.234755 c 2.726035,-2.720626 4.397356,-5.647618 4.397356,-7.700976 0,-0.785327 -0.347898,-1.063252 -1.330769,-1.063252 -1.029958,0 -1.330769,0.269333 -1.330769,1.191636 0,1.478444 -1.062647,3.073068 -4.157368,6.238563 -2.040889,2.087584 -2.300931,2.582059 -1.719877,3.270266 0.376474,0.445953 0.843008,0.810816 1.03679,0.810816 0.19371,0 1.590811,-1.236188 3.104637,-2.747053 z"
         style="fill:#2a7fff;fill-opacity:1;stroke:#c4c4c4;stroke-width:0.51521742;stroke-opacity:1" />
      <path
         transform="matrix(1.9422603,0,0,1.939597,1.1836891,-62.999265)"
         inkscape:export-ydpi="360"
         inkscape:export-xdpi="360"
         inkscape:connector-curvature="0"
         id="path5569"
         d="m 36.081503,61.571346 -1.430304,-1.467541 0,-29.342595 0,-29.3426469 1.197663,-0.3154735 c 1.846004,-0.48631576 5.241684,-0.38255406 7.48069,0.2286082 3.19455,0.872047 5.217663,2.976311 5.536766,5.7588899 0.246892,2.1532206 0.149413,2.4132386 -1.116933,2.9804273 -2.921653,1.308467 -1.019159,3.99696 3.984373,5.630577 2.524686,0.824246 2.74719,1.05502 4.701693,4.876155 4.772506,9.330261 5.061197,16.080289 0.8278,19.353517 -1.349133,1.043178 -1.386303,1.043756 -3.652121,0.05849 -6.009543,-2.613036 -10.757293,-2.39432 -12.315416,0.567332 -1.031206,1.960139 -1.0077,2.075309 0.423267,2.075309 0.666853,0 1.647888,-0.499818 2.180019,-1.110764 1.356994,-1.557799 4.779778,-1.042095 9.915168,1.493896 4.580046,2.261748 6.205456,4.387529 5.254612,6.87247 -0.65297,1.706474 -3.739242,4.908505 -6.649069,6.898465 l -2.193022,1.499675 -2.342067,-1.460031 c -1.288163,-0.802945 -2.980641,-2.205932 -3.761134,-3.117693 -1.476877,-1.725248 -3.616935,-2.242613 -3.616935,-0.874286 0,1.05401 3.54524,4.853484 5.416146,5.804453 0.827067,0.420463 1.503837,0.955663 1.503837,1.189326 0,0.833127 -5.81429,3.210912 -7.851507,3.210912 -1.565614,0 -2.408106,-0.353887 -3.493526,-1.46754 z M 49.045335,27.170992 c 0.581054,-0.688207 0.320938,-1.182682 -1.719877,-3.270266 -3.094721,-3.165495 -4.157367,-4.760119 -4.157367,-6.238563 0,-0.922303 -0.300812,-1.191636 -1.330769,-1.191636 -1.071535,0 -1.330769,0.259874 -1.330769,1.334029 0,0.73377 0.384848,2.087656 0.855126,3.008659 0.842126,1.648925 5.960032,7.168593 6.646867,7.168593 0.193709,0 0.660316,-0.364863 1.036789,-0.810816 z"
         style="fill:#ffcc00;fill-opacity:1;stroke:#c4c4c4;stroke-width:0.51521742;stroke-opacity:1" />
    </g>
    <path
       id="path3155-2-3-2-9-2-3"
       inkscape:connector-curvature="0"
       style="fill:#ff000a;fill-opacity:1;stroke:none;filter:url(#filter4765)"
       d="m 60.12561,-45.263295 c 0.81296,1.433163 -0.0628,3.549504 1.433839,4.78365 1.280164,1.055579 1.566002,1.577837 4.642029,1.074626 1.81778,-0.29733 1.881485,-1.656686 3.477745,-3.54152 1.417221,-1.673492 2.526118,-2.5886 4.254667,-4.04795 1.728549,-1.459492 3.358755,-4.604102 3.603784,-4.748917 -0.302769,0.333886 -1.29887,3.070942 -2.81362,4.3859 -1.156939,1.00418 -2.27551,2.292388 -2.797716,2.766045 -0.825928,0.749005 -3.373662,3.583956 -3.114078,4.671888 0.167034,0.699844 1.915539,0.630799 2.67725,0.868889 0.964786,0.301674 2.897701,1.092412 4.466013,1.985531 1.568369,0.892976 4.575002,-0.01396 4.468165,-0.05742 0.09516,-0.03643 -3.06236,0.903622 -4.817234,0.14033 -1.7549,-0.763428 -3.551878,-1.628675 -4.652927,-1.674334 -2.055077,-0.08544 -3.007618,-0.169889 -5.023715,0.140466 -1.954747,0.301254 -2.403347,0.257697 -3.213382,0.641722 -2.141266,1.015103 -2.838332,1.160619 -3.997224,2.845598 -1.195033,1.737636 -1.552532,3.366314 -0.844778,5.112634 0.876466,2.162836 2.083279,3.019541 3.237407,3.923302 0.567704,0.444389 3.835689,2.569834 4.143467,2.941954 1.129799,1.366497 3.933662,5.561645 3.933662,5.561645 0,0 -3.440534,-4.535895 -4.482947,-5.362069 -0.753808,-0.597467 -2.255976,-1.463695 -2.931342,-1.77223 -0.675338,-0.308678 -4.035747,-2.35247 -5.484083,-4.106073 -0.900092,-1.089894 -2.849292,-1.811585 -4.126402,-1.361037 -1.277183,0.450554 -4.057891,2.449948 -4.877472,3.548243 -1.022938,1.3707 -3.526098,2.849097 -3.989818,3.879888 -0.773642,1.72013 1.213578,2.833693 0.517594,4.903535 -0.695981,2.069844 -1.25521,3.146571 -1.292335,4.5978 -0.04094,1.593802 1.531458,3.9780633 1.531458,3.9780633 0,0 -1.831646,-2.9643593 -1.884292,-3.9954303 -0.04879,-0.956563 0.754094,-3.643618 1.18707,-4.456346 0.634146,-1.18975 -1.557728,-3.514629 -1.189152,-4.956615 0.45259,-1.770549 1.655583,-1.940574 3.04795,-4.170217 1.056878,-1.692542 1.481449,-3.734093 0.459154,-4.633094 -1.022379,-0.898859 -2.380529,-0.729114 -3.900474,-0.336129 -1.859156,0.479264 -4.155595,1.304597 -5.870092,2.486783 -1.140101,0.786258 -2.330978,1.587781 -3.577261,1.890715 -1.690483,0.411896 -4.212434,6.536694 -4.212434,6.536694 0,0 2.780493,-6.303645 3.848814,-6.629969 2.378676,-0.726456 3.448124,-2.163817 4.375542,-2.708065 2.15746,-1.266219 3.479429,-1.364396 5.037253,-2.471374 1.300524,-0.924211 1.831746,-1.782313 2.107951,-3.482837 0.276062,-1.700523 -0.957006,-3.661826 -0.957006,-3.661826 -1.265256,-1.031489 -4.252171,-2.123764 -5.060067,-2.568013 0,0 -2.960136,-1.385682 -5.075847,-2.027267 -2.17107,-0.658388 -5.233404,1.359216 -5.233404,1.359216 2.568691,-1.865646 3.559383,-2.303173 5.445304,-1.71845 1.901829,0.589624 2.666924,0.798582 4.984165,1.7952 2.317184,0.996755 3.855662,1.661446 5.786752,1.685257 1.453758,0.01804 3.251662,-0.422681 4.252796,-1.013705 1.555373,-0.906703 2.250286,-1.908362 3.163991,-3.987307 0.623705,-1.419429 1.221512,-3.288995 0.368857,-6.47114 -0.386607,-1.443106 -3.915671,-3.520792 -12.423294,-2.531318 -8.422956,0.979671 -15.413607,5.938072 -18.895199,14.830771 -2.894342,7.392747 -3.431545,24.766634 4.345679,34.6598915 7.400033,9.4134423 20.32428,15.1614454 34.775209,17.2679995 4.036041,0.588346 11.486145,0.335847 17.504532,-0.471698 11.809791,-1.5984241 22.641897,-5.3767651 29.149296,-15.6764285 1.81092,-3.2164745 3.98894,-6.6047685 5.7514,-11.8692205 1.1845,-2.788174 2.96109,-6.226335 3.21947,-8.986919 0.32031,-3.420514 -0.38594,-2.459191 -0.20931,-4.037587 0.11986,-1.074065 4.25828,0.572396 4.21006,1.494644 -0.0856,1.631899 -2.36855,0.249015 -2.76505,3.380461 -0.34199,2.700921 -5.26555,12.757003 -5.51495,14.046893 -3.47204,7.6997348 -5.67836,9.5210396 -2.52296,8.5422104 2.41491,-0.8079663 10.66414,-13.3051324 11.21315,-15.6370134 0.5396,-2.292248 -0.20845,-1.257117 0.5396,-2.292248 0.75618,-1.046617 3.09719,1.058521 3.09719,1.058521 0.74975,1.518033 -1.6509,0.809925 -3.24415,2.964782 -2.03184,2.748119 -6.51758,11.9671954 -8.82958,13.7310998 0,0 -4.11404,2.8643367 -9.41622,6.3940929 -8.283993,6.7180913 -14.594721,7.9375333 -24.286119,9.5543033 -8.071777,1.346471 -15.196265,0.674216 -20.6399,-0.0322 C 48.632314,12.689957 41.180844,9.2330309 34.722533,5.7818436 28.264195,2.3303501 23.065972,-2.1797462 19.648081,-8.8430785 16.034375,-15.888164 15.074609,-23.36724 15.376229,-29.669608 c 0.301621,-6.302367 1.864628,-11.428028 3.296469,-13.766276 4.730352,-7.724839 9.311265,-11.304431 13.972448,-12.991458 7.369369,-2.667204 11.596521,-2.649437 17.143042,-1.217834 1.913292,0.493836 3.548546,1.857112 4.969104,3.229 1.505907,1.454311 2.679707,3.311272 3.60213,5.142885 1.972309,3.916161 1.324308,3.231161 1.76603,4.009855 z"
       sodipodi:nodetypes="csssscssssscsssszssscssszsssscsssszssscssszsszczzscsssssscccssssccsscsccsssssssaassc" />
    <g
       id="g2988"
       transform="matrix(0.40885606,0,0,0.41300838,48.208909,-3.7280225)"
       style="opacity:0.9565021;fill:#808080;fill-opacity:1;stroke:#000000;stroke-width:2.15610099;stroke-miterlimit:4;stroke-opacity:1;stroke-dasharray:none;filter:url(#filter3931)"
       inkscape:export-xdpi="500.76868"
       inkscape:export-ydpi="500.76868"
       inkscape:export-filename="/home/fer/escritorio/tesis/icons/icon_config.png">
      <path
         id="path2990"
         d="m 165.10891,39.96826 -7.69354,2.365927 c -2.08193,0.64024 -5.11584,-0.413208 -6.62551,-2.300857 -1.39929,-1.749816 -2.92333,-3.450889 -4.52794,-5.058009 -1.70777,-1.709134 -2.30689,-4.723024 -1.30885,-6.581739 l 3.7141,-6.917015 c 2.60189,-4.84564 0.59215,-10.810633 -4.47983,-13.2964002 l -11.75126,-5.75927 c -2.45722,-1.204275 -5.25787,-1.42212697 -7.88653,-0.613758 -2.62867,0.80837 -4.77044,2.546117 -6.03097,4.893677 l -3.7141,6.9170152 c -0.59616,1.110258 -1.89134,2.061946 -3.46373,2.545489 -0.98412,0.302634 -1.98487,0.398255 -2.89355,0.276485 -2.30379,-0.308386 -4.64266,-0.49877 -6.95198,-0.565655 -2.484384,-0.0707 -5.149774,-1.810462 -5.819564,-3.798445 l -2.47679,-7.3512542 c -1.74647,-5.18358917 -7.581984,-8.0444352 -13.0088,-6.3755752 L 67.61534,2.2158678 c -5.426814,1.668858 -8.419843,7.244667 -6.673388,12.4282572 l 2.476802,7.351254 c 0.670143,1.989028 -0.432509,4.887543 -2.407593,6.328465 -1.833389,1.338551 -3.616458,2.794211 -5.297907,4.325838 -0.652699,0.595008 -1.545488,1.086304 -2.514288,1.384231 -1.577854,0.485223 -3.215659,0.43434 -4.380669,-0.136627 L 41.590452,30.35668 c -2.457216,-1.204276 -5.257864,-1.422127 -7.88762,-0.613421 -2.628664,0.808369 -4.77043,2.546116 -6.031309,4.89263 l -6.03598,11.23268 c -1.261974,2.346858 -1.49,5.022522 -0.644966,7.534211 0.846129,2.51137 2.665048,4.55754 5.122264,5.76183 l 7.240113,3.548354 c 1.946982,0.95421 3.302377,3.73784 2.959182,6.07884 -0.320918,2.1958 -0.519417,4.425454 -0.587203,6.627564 -0.074,2.3735 -1.893935,4.91962 -3.975871,5.55986 l -7.693543,2.365924 c -5.426812,1.66887 -8.419842,7.24468 -6.673382,12.428264 l 4.047621,12.013564 c 1.746461,5.18359 7.581978,8.04444 13.008789,6.37558 l 7.693543,-2.36593 c 2.081936,-0.64025 5.115492,0.41216 6.624813,2.29876 1.396775,1.74598 2.919725,3.44739 4.525788,5.05522 1.706679,1.70948 2.304311,4.72613 1.304786,6.5876 l -3.714108,6.91701 c -2.601878,4.84565 -0.592146,10.81063 4.479837,13.29641 l 11.767525,5.7681 c 2.457217,1.20428 5.257867,1.42213 7.886528,0.61375 2.628662,-0.80836 4.770433,-2.5461 6.030952,-4.89367 l 3.714121,-6.91702 c 0.59764,-1.11301 1.89575,-2.06675 3.47251,-2.55164 0.98302,-0.3023 1.98124,-0.39829 2.887384,-0.27691 2.30235,0.30769 4.63724,0.49699 6.93894,0.56277 2.484384,0.0707 5.149764,1.81046 5.819914,3.79948 l 2.4768,7.35126 c 1.74645,5.18359 7.58196,8.04443 13.00878,6.37558 l 12.57472,-3.867 c 5.42681,-1.66885 8.41984,-7.24466 6.67339,-12.42825 l -2.4768,-7.35125 c -0.67014,-1.98904 0.43252,-4.88755 2.40759,-6.32848 1.83338,-1.33854 3.61645,-2.7942 5.2979,-4.32582 0.65271,-0.59502 1.5455,-1.08632 2.5143,-1.38425 1.57784,-0.48522 3.21456,-0.434 4.37958,0.13696 l 7.24011,3.54838 c 2.45722,1.20426 5.25677,1.42245 7.88543,0.61408 2.62975,-0.80871 4.77117,-2.54749 6.03134,-4.8961 l 6.02876,-11.23622 c 2.59934,-4.84601 0.58961,-10.811014 -4.48129,-13.297114 l -7.23503,-3.54762 c -1.94553,-0.953504 -3.29985,-3.737464 -2.95774,-6.078124 0.32166,-2.19719 0.51837,-4.428594 0.58724,-6.631044 0.0729,-2.37318 1.89319,-4.91823 3.97513,-5.55847 l 7.69354,-2.365934 c 5.42681,-1.66886 8.41984,-7.24467 6.67338,-12.428254 L 178.1206,46.345254 c -1.74971,-5.186053 -7.58597,-8.045516 -13.01169,-6.376994 z M 128.61249,68.196884 C 133.73116,83.389342 124.95788,99.728356 109.05578,104.6186 93.153676,109.50882 76.051443,101.12707 70.932776,85.934602 65.814125,70.742144 74.587397,54.40313 90.489502,49.512901 106.39161,44.622664 123.49349,53.00338 128.61249,68.196884 z"
         inkscape:connector-curvature="0"
         style="fill:#808080;fill-opacity:1;stroke:#000000;stroke-width:2.15610099;stroke-miterlimit:4;stroke-opacity:1;stroke-dasharray:none" />
      <path
         id="path2992"
         d="m 47.123693,-2.4997004 c 0.200274,-0.523959 0.858075,-0.961632 1.165912,-0.958958 l 4.047866,0.03514 c 3.799757,0.03299 6.920028,-2.89326 6.954569,-6.5245481 l 0.06002,-6.3100325 c 0.03454,-3.631288 -3.029551,-6.61123 -6.829309,-6.644219 l -4.046715,-0.03513 c -0.307836,-0.0027 -0.957207,-0.451697 -1.14748,-0.979044 -0.396242,-1.097628 -0.862545,-2.191489 -1.386653,-3.248533 -0.244575,-0.494895 -0.105416,-1.236684 0.112493,-1.441122 l 2.903534,-2.723998 c 2.711123,-2.544586 2.750846,-6.721277 0.08856,-9.311415 l -4.626864,-4.501454 c -1.289597,-1.254653 -3.014115,-1.954456 -4.855409,-1.970442 -1.841308,-0.01599 -3.578857,0.65486 -4.892104,1.88691 l -2.902381,2.722914 c -0.09041,0.08482 -0.399551,0.21932 -0.841789,0.215482 -0.251547,-0.0022 -0.494632,-0.05039 -0.668448,-0.133115 -1.099004,-0.519872 -2.23414,-0.985184 -3.374518,-1.382498 -0.549582,-0.191343 -1.007689,-0.820889 -1.004903,-1.113894 l 0.03679,-3.867227 c 0.03454,-3.631287 -3.029553,-6.611228 -6.829312,-6.644217 l -6.60478,-0.05734 c -3.7997572,-0.03299 -6.9200332,2.893262 -6.9545712,6.524547 l -0.03678,3.867227 c -0.0027,0.294103 -0.472785,0.913396 -1.024765,1.095176 -1.153512,0.379595 -2.298472,0.826209 -3.402569,1.324761 -0.17420893,0.0786 -0.41931093,0.122571 -0.67086713,0.120386 -0.442232,-0.0038 -0.747631,-0.142579 -0.836412,-0.228954 l -2.85125247,-2.772863 c -1.289602,-1.25465 -3.014115,-1.954454 -4.855412,-1.97044 -1.841297,-0.01599 -3.5776882,0.653771 -4.8909442,1.885825 l -4.711722,4.420382 c -2.711135,2.544584 -2.750872,6.722374 -0.08858,9.312511 l 2.8501,2.772854 c 0.213986,0.208185 0.340163,0.952279 0.08623,1.44175 -0.544146,1.048864 -1.031204,2.13444 -1.448235,3.225015 -0.200272,0.523959 -0.859234,0.96272 -1.165926,0.960057 l -4.047867,-0.03514 c -3.799759,-0.03299 -6.920034,2.893262 -6.954573,6.524549 l -0.06002,6.310034 c -0.03453,3.6301896 3.028407,6.6112186 6.828165,6.6442066 l 4.047869,0.03514 c 0.30784,0.0026 0.95721,0.451696 1.147481,0.979044 0.396204,1.098734 0.862545,2.19148903 1.38666,3.24853003 0.244575,0.4948952 0.105417,1.23668617 -0.112504,1.44112217 l -2.90354,2.723999 c -1.313255,1.232052 -2.045747,2.879607 -2.062479,4.638735 -0.01674,1.7591272 0.684309,3.4180292 1.975049,4.6737872 l 4.626871,4.50036 c 1.289602,1.254649 3.014115,1.954453 4.8554142,1.970438 1.841295,0.01599 3.577687,-0.653771 4.890942,-1.885824 l 2.90353397,-2.723997 c 0.09041,-0.08482 0.3995555,-0.219323 0.8417875,-0.215484 0.251555,0.0022 0.494633,0.05039 0.668458,0.133112 1.09900413,0.519873 2.23413913,0.985185 3.37451813,1.382499 0.549581,0.191344 1.007689,0.82089 1.004901,1.113894 l -0.03678,3.867228 c -0.03454,3.631287 3.029556,6.611228 6.8293142,6.644217 l 6.604779,0.05734 c 3.799759,0.03299 6.920033,-2.893263 6.954573,-6.524548 l 0.03677,-3.866131 c 0.0027,-0.294102 0.472784,-0.913395 1.024765,-1.095176 1.148906,-0.378539 2.292707,-0.824064 3.400272,-1.324781 0.17537,-0.07969 0.420471,-0.123654 0.672025,-0.121474 0.442234,0.0039 0.74762,0.143676 0.837549,0.230061 l 2.851239,2.773961 c 1.289603,1.25465 3.014116,1.954454 4.855419,1.970439 1.841297,0.01599 3.577688,-0.653772 4.890943,-1.885824 l 4.711724,-4.420382 c 2.711122,-2.544584 2.750846,-6.7212762 0.08857,-9.3114142 l -2.8501,-2.772854 c -0.213987,-0.208185 -0.34016,-0.953376 -0.08623,-1.44284597 0.544203,-1.0543532 1.031252,-2.13883323 1.447119,-3.22831823 z M 28.810273,-13.367978 C 28.743013,-6.2963514 22.665863,-0.59388437 15.263915,-0.65814737 7.8608188,-0.72241737 1.8931358,-6.5283574 1.9604088,-13.601082 c 0.06728,-7.072725 6.144412,-12.774093 13.5475082,-12.709823 7.401947,0.06427 13.369631,5.870201 13.302356,12.942927 z"
         inkscape:connector-curvature="0"
         style="fill:#808080;fill-opacity:1;stroke:#000000;stroke-width:2.15610099;stroke-miterlimit:4;stroke-opacity:1;stroke-dasharray:none" />
    </g>
  </g>
</svg>
