<?xml version="1.0" encoding="UTF-8" standalone="no"?>
<!-- Created with Inkscape (http://www.inkscape.org/) -->

<svg
   xmlns:dc="http://purl.org/dc/elements/1.1/"
   xmlns:cc="http://creativecommons.org/ns#"
   xmlns:rdf="http://www.w3.org/1999/02/22-rdf-syntax-ns#"
   xmlns:svg="http://www.w3.org/2000/svg"
   xmlns="http://www.w3.org/2000/svg"
   xmlns:sodipodi="http://sodipodi.sourceforge.net/DTD/sodipodi-0.dtd"
   xmlns:inkscape="http://www.inkscape.org/namespaces/inkscape"
   inkscape:export-ydpi="225"
   inkscape:export-xdpi="225"
   inkscape:export-filename="/home/fer/escritorio/tesis/icons/icon.png"
   sodipodi:docname="icon.svg"
   inkscape:version="0.48.3.1 r9886"
   version="1.1"
   id="svg3560"
   height="128"
   width="128">
  <defs
     id="defs3562">
    <filter
       id="filter3266"
       inkscape:label="Drop Shadow"
       color-interpolation-filters="sRGB">
      <feFlood
         id="feFlood3268"
         flood-opacity="0.815"
         flood-color="rgb(0,0,0)"
         result="flood" />
      <feComposite
         id="feComposite3270"
         in2="SourceGraphic"
         in="flood"
         operator="in"
         result="composite1" />
      <feGaussianBlur
         id="feGaussianBlur3272"
         stdDeviation="3.8"
         result="blur" />
      <feOffset
         id="feOffset3274"
         dx="1.8"
         dy="5.9"
         result="offset" />
      <feComposite
         id="feComposite3276"
         in2="offset"
         in="SourceGraphic"
         operator="over"
         result="composite2" />
    </filter>
    <filter
       id="filter3278"
       inkscape:label="Drop Shadow"
       color-interpolation-filters="sRGB">
      <feFlood
         id="feFlood3280"
         flood-opacity="0.815"
         flood-color="rgb(0,0,0)"
         result="flood" />
      <feComposite
         id="feComposite3282"
         in2="SourceGraphic"
         in="flood"
         operator="in"
         result="composite1" />
      <feGaussianBlur
         id="feGaussianBlur3284"
         stdDeviation="3.8"
         result="blur" />
      <feOffset
         id="feOffset3286"
         dx="1.8"
         dy="5.9"
         result="offset" />
      <feComposite
         id="feComposite3288"
         in2="offset"
         in="SourceGraphic"
         operator="over"
         result="composite2" />
    </filter>
    <filter
       id="filter4511"
       style="color-interpolation-filters:sRGB;"
       inkscape:label="Drop Shadow">
      <feFlood
         id="feFlood4513"
         flood-opacity="0.874"
         flood-color="rgb(0,0,0)"
         result="flood" />
      <feComposite
         id="feComposite4515"
         in2="SourceGraphic"
         in="flood"
         operator="in"
         result="composite1" />
      <feGaussianBlur
         id="feGaussianBlur4517"
         in="composite"
         stdDeviation="4.6"
         result="blur" />
      <feOffset
         id="feOffset4519"
         dx="4"
         dy="6.9"
         result="offset" />
      <feComposite
         id="feComposite4521"
         in2="offset"
         in="SourceGraphic"
         operator="over"
         result="composite2" />
    </filter>
    <filter
       id="filter4765"
       style="color-interpolation-filters:sRGB;"
       inkscape:label="Drop Shadow">
      <feFlood
         id="feFlood4767"
         flood-opacity="0.694"
         flood-color="rgb(0,0,0)"
         result="flood" />
      <feComposite
         id="feComposite4769"
         in2="SourceGraphic"
         in="flood"
         operator="in"
         result="composite1" />
      <feGaussianBlur
         id="feGaussianBlur4771"
         in="composite"
         stdDeviation="3.5"
         result="blur" />
      <feOffset
         id="feOffset4773"
         dx="7"
         dy="6.9"
         result="offset" />
      <feComposite
         id="feComposite4775"
         in2="offset"
         in="SourceGraphic"
         operator="over"
         result="composite2" />
    </filter>
    <filter
       id="filter4837"
       style="color-interpolation-filters:sRGB;"
       inkscape:label="Drop Shadow">
      <feFlood
         id="feFlood4839"
         flood-opacity="0.674"
         flood-color="rgb(0,0,0)"
         result="flood" />
      <feComposite
         id="feComposite4841"
         in2="SourceGraphic"
         in="flood"
         operator="in"
         result="composite1" />
      <feGaussianBlur
         id="feGaussianBlur4843"
         in="composite"
         stdDeviation="3.5"
         result="blur" />
      <feOffset
         id="feOffset4845"
         dx="6.1"
         dy="6.3"
         result="offset" />
      <feComposite
         id="feComposite4847"
         in2="offset"
         in="SourceGraphic"
         operator="over"
         result="composite2" />
    </filter>
  </defs>
  <sodipodi:namedview
     id="base"
     pagecolor="#ffffff"
     bordercolor="#666666"
     borderopacity="1.0"
     inkscape:pageopacity="0"
     inkscape:pageshadow="2"
     inkscape:zoom="1.84375"
     inkscape:cx="64"
     inkscape:cy="64"
     inkscape:current-layer="layer1"
     showgrid="true"
     inkscape:document-units="px"
     inkscape:grid-bbox="true"
     inkscape:window-width="1024"
     inkscape:window-height="692"
     inkscape:window-x="0"
     inkscape:window-y="24"
     inkscape:window-maximized="1" />
  <metadata
     id="metadata3565">
    <rdf:RDF>
      <cc:Work
         rdf:about="">
        <dc:format>image/svg+xml</dc:format>
        <dc:type
           rdf:resource="http://purl.org/dc/dcmitype/StillImage" />
        <dc:title />
      </cc:Work>
    </rdf:RDF>
  </metadata>
  <g
     id="layer1"
     inkscape:label="Layer 1"
     inkscape:groupmode="layer"
     transform="translate(0,64)">
    <g
       id="g4375"
       transform="translate(-1.9318855,0)"
       style="filter:url(#filter4837)">
      <path
         transform="matrix(1.9422603,0,0,1.939597,1.1836891,-62.999265)"
         sodipodi:nodetypes="ccssccssssscccsscscccccccccccsssscsc"
         inkscape:export-ydpi="360"
         inkscape:export-xdpi="360"
         inkscape:export-filename="/home/fer/escritorio/icons/path5569.png"
         inkscape:connector-curvature="0"
         id="path5567"
         d="m 22.008895,61.624201 c -3.002311,-1.47801 -3.373568,-1.996818 -1.783639,-2.492883 1.757341,-0.548269 5.909052,-4.72156 5.909052,-5.939768 0,-1.676076 -1.70188,-1.442702 -3.107576,0.426167 -0.648196,0.861793 -2.410458,2.258498 -3.91613,3.103757 l -2.737641,1.536931 -2.17238,-1.492307 C 10.712786,54.370189 8.5784573,52.202815 7.7214938,50.186716 6.5311766,47.386375 7.8280081,45.52415 12.682641,43.062459 c 5.022998,-2.547038 8.284176,-3.053283 9.922587,-1.540252 1.072711,0.990611 3.52908,1.563215 3.52908,0.822657 0,-0.158134 -0.360753,-0.97321 -0.801576,-1.811246 -1.20354,-2.287743 -4.103008,-2.986565 -8.080549,-1.947431 -1.702102,0.444653 -3.879329,1.119935 -4.838326,1.500611 -2.069759,0.821719 -3.004968,0.399027 -4.7772078,-2.15914 -1.184144,-1.709271 -1.4812041,-4.353904 -0.94857,-7.557754 0.5014446,-3.016241 1.7382595,-6.528125 3.6625578,-10.221789 1.6556,-3.178058 1.953988,-3.45844 4.855808,-4.563283 5.015138,-1.90952 6.586483,-4.214376 3.74174,-5.488473 -1.992039,-0.8921207 -1.863047,-3.9815802 0.265698,-6.364853 2.19236,-2.4543969 7.588454,-3.67939296 11.578115,-2.6284164 l 1.197663,0.3154735 0,29.3426469 0,29.342595 -1.430378,1.467541 c -1.872303,1.921002 -4.71969,1.93862 -8.550388,0.05271 l 0,0 z M 21.736952,25.234755 c 2.726035,-2.720626 4.397356,-5.647618 4.397356,-7.700976 0,-0.785327 -0.347898,-1.063252 -1.330769,-1.063252 -1.029958,0 -1.330769,0.269333 -1.330769,1.191636 0,1.478444 -1.062647,3.073068 -4.157368,6.238563 -2.040889,2.087584 -2.300931,2.582059 -1.719877,3.270266 0.376474,0.445953 0.843008,0.810816 1.03679,0.810816 0.19371,0 1.590811,-1.236188 3.104637,-2.747053 z"
         style="fill:#2a7fff;fill-opacity:1;stroke:#c4c4c4;stroke-width:0.51521742000000004;stroke-opacity:1;" />
      <path
         transform="matrix(1.9422603,0,0,1.939597,1.1836891,-62.999265)"
         inkscape:export-ydpi="360"
         inkscape:export-xdpi="360"
         inkscape:connector-curvature="0"
         id="path5569"
         d="m 36.081503,61.571346 -1.430304,-1.467541 0,-29.342595 0,-29.3426469 1.197663,-0.3154735 c 1.846004,-0.48631576 5.241684,-0.38255406 7.48069,0.2286082 3.19455,0.872047 5.217663,2.976311 5.536766,5.7588899 0.246892,2.1532206 0.149413,2.4132386 -1.116933,2.9804273 -2.921653,1.308467 -1.019159,3.99696 3.984373,5.630577 2.524686,0.824246 2.74719,1.05502 4.701693,4.876155 4.772506,9.330261 5.061197,16.080289 0.8278,19.353517 -1.349133,1.043178 -1.386303,1.043756 -3.652121,0.05849 -6.009543,-2.613036 -10.757293,-2.39432 -12.315416,0.567332 -1.031206,1.960139 -1.0077,2.075309 0.423267,2.075309 0.666853,0 1.647888,-0.499818 2.180019,-1.110764 1.356994,-1.557799 4.779778,-1.042095 9.915168,1.493896 4.580046,2.261748 6.205456,4.387529 5.254612,6.87247 -0.65297,1.706474 -3.739242,4.908505 -6.649069,6.898465 l -2.193022,1.499675 -2.342067,-1.460031 c -1.288163,-0.802945 -2.980641,-2.205932 -3.761134,-3.117693 -1.476877,-1.725248 -3.616935,-2.242613 -3.616935,-0.874286 0,1.05401 3.54524,4.853484 5.416146,5.804453 0.827067,0.420463 1.503837,0.955663 1.503837,1.189326 0,0.833127 -5.81429,3.210912 -7.851507,3.210912 -1.565614,0 -2.408106,-0.353887 -3.493526,-1.46754 z M 49.045335,27.170992 c 0.581054,-0.688207 0.320938,-1.182682 -1.719877,-3.270266 -3.094721,-3.165495 -4.157367,-4.760119 -4.157367,-6.238563 0,-0.922303 -0.300812,-1.191636 -1.330769,-1.191636 -1.071535,0 -1.330769,0.259874 -1.330769,1.334029 0,0.73377 0.384848,2.087656 0.855126,3.008659 0.842126,1.648925 5.960032,7.168593 6.646867,7.168593 0.193709,0 0.660316,-0.364863 1.036789,-0.810816 z"
         style="fill:#ffcc00;fill-opacity:1;stroke:#c4c4c4;stroke-width:0.51521742000000004;stroke-opacity:1;" />
    </g>
    <path
       id="path3155-2-3-2-9-2-3"
       inkscape:connector-curvature="0"
       style="fill:#ff000a;fill-opacity:1;stroke:none;filter:url(#filter4765)"
       d="m 60.12561,-42.928158 c 0.81296,1.433163 -0.0628,3.549504 1.433839,4.78365 1.280164,1.055579 1.566002,1.577837 4.642029,1.074626 1.81778,-0.29733 1.881485,-1.656686 3.477745,-3.54152 1.417221,-1.673492 2.526118,-2.5886 4.254667,-4.04795 1.728549,-1.459492 3.358755,-4.604102 3.603784,-4.748917 -0.302769,0.333886 -1.29887,3.070942 -2.81362,4.3859 -1.156939,1.00418 -2.27551,2.292388 -2.797716,2.766045 -0.825928,0.749005 -3.373662,3.583956 -3.114078,4.671888 0.167034,0.699844 1.915539,0.630799 2.67725,0.868889 0.964786,0.301674 2.897701,1.092412 4.466013,1.985531 1.568369,0.892976 4.575002,-0.01396 4.468165,-0.05742 0.09516,-0.03643 -3.06236,0.903622 -4.817234,0.14033 -1.7549,-0.763428 -3.551878,-1.628675 -4.652927,-1.674334 -2.055077,-0.08544 -3.007618,-0.169889 -5.023715,0.140466 -1.954747,0.301254 -2.403347,0.257697 -3.213382,0.641722 -2.141266,1.015103 -2.838332,1.160619 -3.997224,2.845598 -1.195033,1.737636 -1.552532,3.366314 -0.844778,5.112634 0.876466,2.162836 2.083279,3.019541 3.237407,3.923302 0.567704,0.444389 3.835689,2.569834 4.143467,2.941954 1.129799,1.366497 3.933662,5.561645 3.933662,5.561645 0,0 -3.440534,-4.535895 -4.482947,-5.362069 -0.753808,-0.597467 -2.255976,-1.463695 -2.931342,-1.77223 -0.675338,-0.308678 -4.035747,-2.35247 -5.484083,-4.106073 -0.900092,-1.089894 -2.849292,-1.811585 -4.126402,-1.361037 -1.277183,0.450554 -4.057891,2.449948 -4.877472,3.548243 -1.022938,1.3707 -3.526098,2.849097 -3.989818,3.879888 -0.773642,1.72013 1.213578,2.833693 0.517594,4.903535 -0.695981,2.069844 -1.25521,3.146571 -1.292335,4.5978 -0.04094,1.5938019 1.531458,3.9780634 1.531458,3.9780634 0,0 -1.831646,-2.9643594 -1.884292,-3.9954304 -0.04879,-0.956563 0.754094,-3.643618 1.18707,-4.456346 0.634146,-1.18975 -1.557728,-3.514629 -1.189152,-4.956615 0.45259,-1.770549 1.655583,-1.940574 3.04795,-4.170217 1.056878,-1.692542 1.481449,-3.734093 0.459154,-4.633094 -1.022379,-0.898859 -2.380529,-0.729114 -3.900474,-0.336129 -1.859156,0.479264 -4.155595,1.304597 -5.870092,2.486783 -1.140101,0.786258 -2.330978,1.587781 -3.577261,1.890715 -1.690483,0.411896 -4.212434,6.536694 -4.212434,6.536694 0,0 2.780493,-6.303645 3.848814,-6.629969 2.378676,-0.726456 3.448124,-2.163817 4.375542,-2.708065 2.15746,-1.266219 3.479429,-1.364396 5.037253,-2.471374 1.300524,-0.924211 1.831746,-1.782313 2.107951,-3.482837 0.276062,-1.700523 -0.957006,-3.661826 -0.957006,-3.661826 -1.265256,-1.031489 -4.252171,-2.123764 -5.060067,-2.568013 0,0 -2.960136,-1.385682 -5.075847,-2.027267 -2.17107,-0.658388 -5.233404,1.359216 -5.233404,1.359216 2.568691,-1.865646 3.559383,-2.303173 5.445304,-1.71845 1.901829,0.589624 2.666924,0.798582 4.984165,1.7952 2.317184,0.996755 3.855662,1.661446 5.786752,1.685257 1.453758,0.01804 3.251662,-0.422681 4.252796,-1.013705 1.555373,-0.906703 2.250286,-1.908362 3.163991,-3.987307 0.623705,-1.419429 1.221512,-3.288995 0.368857,-6.47114 -0.386607,-1.443106 -3.915671,-3.520792 -12.423294,-2.531318 -8.422956,0.979671 -15.413607,5.938072 -18.895199,14.830771 -2.894342,7.392747 -3.431545,24.766634 4.345679,34.6598916 7.400033,9.4134423 20.32428,15.1614454 34.775209,17.2679994 4.036041,0.588346 11.486145,0.335847 17.504532,-0.471698 11.809791,-1.598424 22.641897,-5.376765 29.149296,-15.6764284 1.81092,-3.2164745 3.98894,-6.6047681 5.7514,-11.8692206 1.1845,-2.788174 2.96109,-6.226335 3.21947,-8.986919 0.32031,-3.420514 -0.38594,-2.459191 -0.20931,-4.037587 0.11986,-1.074065 4.25828,0.572396 4.21006,1.494644 -0.0856,1.631899 -2.36855,0.249015 -2.76505,3.380461 -0.34199,2.700921 -5.26555,12.7570031 -5.51495,14.0468934 -3.47204,7.69973449 -5.67836,9.5210393 -2.52296,8.54221007 2.41491,-0.80796629 10.66414,-13.30513247 11.21315,-15.63701347 0.5396,-2.292248 -0.20845,-1.257117 0.5396,-2.292248 0.75618,-1.046617 3.09719,1.058521 3.09719,1.058521 0.74975,1.518033 -1.6509,0.809925 -3.24415,2.964782 -2.03184,2.748119 -6.51758,11.9671955 -8.82958,13.73109994 0,0 -4.11404,2.86433666 -9.41622,6.39409286 -8.283993,6.7180912 -14.594721,7.9375332 -24.286119,9.5543032 -8.071777,1.346471 -15.196265,0.674216 -20.6399,-0.0322 C 48.632314,15.025094 41.180844,11.568168 34.722533,8.1169807 28.264195,4.6654872 23.065972,0.15539086 19.648081,-6.5079414 16.034375,-13.553027 15.074609,-21.032103 15.376229,-27.334471 c 0.301621,-6.302367 1.864628,-11.428028 3.296469,-13.766276 4.730352,-7.724839 9.311265,-11.304431 13.972448,-12.991458 7.369369,-2.667204 11.596521,-2.649437 17.143042,-1.217834 1.913292,0.493836 3.548546,1.857112 4.969104,3.229 1.505907,1.454311 2.679707,3.311272 3.60213,5.142885 1.972309,3.916161 1.324308,3.231161 1.76603,4.009855 z"
       sodipodi:nodetypes="csssscssssscsssszssscssszsssscsssszssscssszsszczzscsssssscccssssccsscsccsssssssaassc" />
    <path
       id="path3155-2-3-2-9-2-2-8"
       inkscape:connector-curvature="0"
       style="fill:#00b48b;fill-opacity:1;stroke:none;filter:url(#filter4765)"
       d="m 74.020268,46.21086 c -0.490846,-1.714379 0.07048,-3.984885 -1.609689,-5.370275 -1.437148,-1.185198 -1.758068,-1.771376 -5.211315,-1.206556 -2.040723,0.333788 -2.112247,1.859807 -3.904287,3.975893 -1.591026,1.87881 -2.835922,2.906015 -4.776457,4.544481 -1.940538,1.638283 -3.770684,5.168641 -4.045748,5.331144 0.33991,-0.374682 1.458138,-3.4475 3.158667,-4.923632 1.29884,-1.127468 2.554579,-2.573656 3.140831,-3.105297 0.927216,-0.840821 3.787406,-4.023412 3.496008,-5.245052 -0.187525,-0.785403 -2.150468,-0.707928 -3.005606,-0.975175 -1.083102,-0.338634 -3.253073,-1.226473 -5.013726,-2.229113 -1.760723,-1.002442 -5.136082,0.01862 -5.016151,0.06457 -0.106572,0.04117 3.437938,-1.014461 5.408023,-0.157864 1.970126,0.856997 3.987478,1.828405 5.223585,1.879526 2.307126,0.0951 3.376474,0.190856 5.639828,-0.157845 2.19447,-0.3381 2.698082,-0.289139 3.607463,-0.720321 2.403889,-1.139652 3.186448,-1.302884 4.487457,-3.194607 1.341603,-1.950547 1.742932,-3.778953 0.94839,-5.739722 -0.983958,-2.427832 -2.338771,-3.389758 -3.634446,-4.404231 -0.63733,-0.49915 -4.306102,-2.885022 -4.651631,-3.302926 -1.268352,-1.534086 -4.41609,-6.243732 -4.41609,-6.243732 0,0 3.862484,5.092243 5.032733,6.019718 0.846262,0.670798 2.53268,1.643296 3.29084,1.989648 0.758173,0.346533 4.530714,2.640925 6.156665,4.609577 1.010496,1.2236 3.19873,2.033779 4.63247,1.527993 1.433829,-0.5058 4.555556,-2.750516 5.475667,-3.983443 1.148404,-1.538917 3.958544,-3.198544 4.479122,-4.355789 0.868521,-1.931008 -1.362402,-3.181164 -0.581058,-5.504768 0.78133,-2.323814 1.409143,-3.532334 1.450818,-5.161667 0.04593,-1.7893015 -1.71926,-4.4658968 -1.71926,-4.4658968 0,0 2.05626,3.3278674 2.11537,4.4854478 0.0545,1.073844 -0.846563,4.090331 -1.33267,5.002748 -0.711905,1.335702 1.748766,3.945769 1.335011,5.564503 -0.508109,1.987673 -1.858627,2.178524 -3.421762,4.681692 -1.186498,1.90014 -1.663132,4.192023 -0.515468,5.201288 1.14779,1.009094 2.672486,0.818426 4.378849,0.377189 2.087151,-0.537888 4.66523,-1.464477 6.589989,-2.791565 1.27995,-0.882655 2.61687,-1.782495 4.016,-2.12274 1.89781,-0.4624 4.72904,-7.338201 4.72904,-7.338201 0,0 -3.1215,7.076497 -4.32082,7.442945 -2.67041,0.815545 -3.87101,2.429276 -4.91217,3.040342 -2.422065,1.421452 -3.90617,1.531578 -5.655038,2.774364 -1.460019,1.037597 -2.056373,2.000953 -2.366478,3.909902 -0.309904,1.909121 1.074373,4.110963 1.074373,4.110963 1.420442,1.157943 4.773661,2.384231 5.680645,2.883032 0,0 3.323188,1.555609 5.698358,2.275931 2.43734,0.738961 5.87523,-1.526019 5.87523,-1.526019 -2.88372,2.094591 -3.99591,2.585674 -6.11309,1.929203 -2.1351,-0.661836 -2.99403,-0.896437 -5.595455,-2.015292 -2.601379,-1.119039 -4.328514,-1.865184 -6.496448,-1.892073 -1.632045,-0.01974 -3.650451,0.47458 -4.774358,1.138223 -1.746144,1.017696 -2.526261,2.142294 -3.552036,4.476303 -0.700207,1.593439 -1.371321,3.692148 -0.414102,7.264676 0.434049,1.619993 4.395886,3.952589 13.94692,2.8418 9.455959,-1.09985 16.376339,-6.876157 21.212469,-16.649569 3.9599,-8.002622 4.1852,-27.37984 -4.87859,-38.9105979 C 106.18759,-8.5458605 92.26059,-15.94778 75.327056,-17.525931 70.767831,-17.950836 62.432237,-17.902955 55.675721,-16.996279 42.417594,-15.201766 30.020238,-11.078257 22.714768,0.48446287 21.482606,4.2266321 18.473369,8.0174503 16.494767,13.927406 c -1.329788,3.130205 -3.324241,6.990054 -3.614314,10.089047 -0.359583,3.840308 0.433276,2.760921 0.234986,4.532828 C 12.980755,29.75511 8.3349202,27.906817 8.3890656,26.87153 8.4852286,25.039371 11.048099,26.591718 11.493216,23.076251 11.87714,20.044158 17.404548,8.7549917 17.684533,7.3068149 21.438146,-1.2834274 24.453238,-3.5407731 20.910875,-2.4418323 18.199765,-1.5347507 8.5449093,12.653758 7.9285678,15.271516 7.3227841,17.845002 8.1625689,16.68293 7.3227841,17.845002 6.4738824,19.019991 3.8457669,16.656753 3.8457669,16.656753 3.0040419,14.952447 5.6991003,15.747542 7.4877735,13.328338 9.7688036,10.243318 14.763585,1.4926518 18.252789,-1.7665946 c 3.489205,-3.2592484 4.082387,-3.8516381 9.718467,-7.4983305 9.721784,-6.9100959 14.06144,-7.5612499 25.577346,-9.8834959 9.736207,-1.963361 19.169028,-0.44115 25.069373,-0.174777 8.578814,0.387302 16.670476,4.353497 23.920835,8.228218 7.25043,3.8747333 13.08599,8.9381113 16.92327,16.418398 8.11363,15.818046 4.30048,33.578751 1.09485,38.835289 -10.94312,17.94544 -20.55281,16.889536 -28.853499,16.710537 -6.912646,-0.148806 -9.964248,-3.020259 -11.656459,-4.383772 -3.248066,-2.616853 -3.00836,-3.71725 -4.043893,-5.773436 -2.214202,-4.396502 -1.48673,-3.627568 -1.982626,-4.501796 z"
       sodipodi:nodetypes="csssscssssscsssszssscssszsssscsssszssscssszsszczzscsssssscccssssccsscszcsssssssssc" />
  </g>
</svg>
